<svg xmlns="http://www.w3.org/2000/svg" width="147" height="150" viewBox="0 0 147 150"><title>icones_cognitive</title><g><path d="M139.94,75.05A65.86,65.86,0,1,1,74.08,9.19a65.86,65.86,0,0,1,65.86,65.86" fill="#662382"></path><path d="M51.51,97.53H74.94L89.38,117.4l4.93-9.52L85.79,97.32h14.3a17,17,0,0,0,14.29-7.68c6.07-9.42,6-22.84-7.28-29.57a4.94,4.94,0,0,1-4.7-3.44C90.66,20,30.12,23.53,28.14,73.3A23.26,23.26,0,0,0,51.51,97.53" fill="#fff"></path><path d="M24.14,67.79s6.24-5.26,11.17-.66,2.63,10.52,16.1,10.52" fill="none" stroke="#662382" stroke-linecap="round" stroke-linejoin="round" stroke-width="3"></path><path d="M45.82,66.8c7.89-1.31,17.42-2,21.36,4.6" fill="none" stroke="#662382" stroke-linecap="round" stroke-linejoin="round" stroke-width="3"></path><path d="M52.07,99.66s-5.59-6.9,2.3-9.53,12.81,0,12.81,0,10.52,2.63,11.17-1.64" fill="none" stroke="#662382" stroke-linecap="round" stroke-linejoin="round" stroke-width="3"></path><path d="M45.5,48.73A10.14,10.14,0,0,0,50.42,55c3.95,2,10.85,0,12.82-1s13.14-7.56,18.4,0" fill="none" stroke="#662382" stroke-linecap="round" stroke-linejoin="round" stroke-width="3"></path><path d="M74.08,59.25s-.33,7.55,7.56,7.88,12.81-9.85,12.81-9.85,3-10.19,9.53-9.2" fill="none" stroke="#662382" stroke-linecap="round" stroke-linejoin="round" stroke-width="3"></path><path d="M84.27,77.32s-2,1.64,1.31,3.94S94.12,79,94.12,79" fill="none" stroke="#662382" stroke-linecap="round" stroke-linejoin="round" stroke-width="3"></path><path d="M93.47,72.72s2-3.62,4.93-4.6,6.57-2.3,11.17-.66,7.88,6.9,11.5,5.92" fill="none" stroke="#662382" stroke-linecap="round" stroke-linejoin="round" stroke-width="3"></path><path d="M38.27,42.82s6.57-7.89,11.5-4.27a29.61,29.61,0,0,1,7.55,8.21" fill="none" stroke="#662382" stroke-linecap="round" stroke-linejoin="round" stroke-width="3"></path><path d="M64.88,38.87s-1,4.28,3.29,5.26,7.88-2.63,7.88-2.63" fill="none" stroke="#662382" stroke-linecap="round" stroke-linejoin="round" stroke-width="3"></path><path d="M114.07,72.72s1,4.27-3.29,5.26-7.88-2.63-7.88-2.63" fill="none" stroke="#662382" stroke-linecap="round" stroke-linejoin="round" stroke-width="3"></path><path d="M71.78,37.23s4.6-3.28,7.89,1" fill="none" stroke="#662382" stroke-linecap="round" stroke-linejoin="round" stroke-width="3"></path><path d="M58.64,82.57S69,78.4,76.38,83.83" fill="none" stroke="#662382" stroke-linecap="round" stroke-linejoin="round" stroke-width="3"></path><path d="M31,85s9.39-4.58,16.1,1.38" fill="none" stroke="#662382" stroke-linecap="round" stroke-linejoin="round" stroke-width="3"></path><path d="M42.54,56.46s-9.39,4.59-16.1-1.38" fill="none" stroke="#662382" stroke-linecap="round" stroke-linejoin="round" stroke-width="3"></path><path d="M87.22,90.13s-.32,3,4.6,3,6.58-2,6.58-2,3.94-4.93,6.57-4.6,3.94,1,4.6,2.3" fill="none" stroke="#662382" stroke-linecap="round" stroke-linejoin="round" stroke-width="3"></path></g></svg>