<svg xmlns="http://www.w3.org/2000/svg" width="147" height="150" viewBox="0 0 147 150"><title>icones_heart</title><g><path d="M139.7,75.05A65.86,65.86,0,1,1,73.84,9.19,65.85,65.85,0,0,1,139.7,75.05" fill="#931c80"></path><path d="M39.29,55.05a24,24,0,0,0,4.22,25.37L73.77,114.9V55.66c-14.2-18.22-30.65-9.31-34.48-.61" fill="#fff"></path><path d="M108.34,55.05c-3.82-8.7-20.28-17.61-34.48.61V114.9l30.26-34.48a24,24,0,0,0,4.22-25.37" fill="#fff"></path><rect x="73.77" y="55.69" width="0.08" height="59.22" fill="#fff"></rect><polyline points="33.98 88.48 56.59 88.48 59.94 75.92 64.45 84.84 69.15 93.5 74.17 65.87 77.52 87.64 81.7 71.73 84.22 88.48 113.52 88.48" fill="none" stroke="#931c80" stroke-linecap="round" stroke-linejoin="round" stroke-width="2"></polyline></g></svg>