<svg xmlns="http://www.w3.org/2000/svg" width="147" height="150" viewBox="0 0 147 150"><title>icones_full</title><g><path d="M139.24,75.05A65.86,65.86,0,1,1,73.38,9.19a65.86,65.86,0,0,1,65.86,65.86" fill="#ac3572"></path><path d="M27.73,79.19c-3.88,9.15-4.35,19.37,0,31.11,0,0,14.24,5.28,37.45,4.22a301.35,301.35,0,0,0,39.55-4.22s6.33-2.64,7.91-6.85,9-60.13-2.11-69.62S81,28.56,79.94,32.25s-.79,22.91,8.71,21.33,11.33.29,12.92-2.34S89.44,69.17,91,79.71s-.53,4.22-.53,4.22S82.58,62.84,62,62.84,27.73,79.19,27.73,79.19" fill="#fff"></path><path d="M84.88,41.33s.53,11.82,2.93,12.81" fill="none" stroke="#ac3572" stroke-linecap="round" stroke-linejoin="round"></path><path d="M89.65,40.74s0,11.37,2.36,12.4" fill="none" stroke="#ac3572" stroke-linecap="round" stroke-linejoin="round"></path><path d="M94.94,42.26s-.8,9.94,1.48,11" fill="none" stroke="#ac3572" stroke-linecap="round" stroke-linejoin="round"></path><path d="M102.83,37.86s-.23,14.36-3.74,15.49" fill="none" stroke="#ac3572" stroke-linecap="round" stroke-linejoin="round"></path></g></svg>